# xmcd CD database file
#
# Track frame offsets:
#	150
#	16420
#	35740
#
# Disc length: 691 seconds
#
# Revision: 0
# Processed by: cddbd v1.5.1PL2 Copyright (c) Steve Scherf et al.
# Submitted via: CDex 1.50beta8
#
DISCID=1e02b103
DTITLE=山口百恵 - 秋桜(コスモス)
DYEAR=1977
DGENRE=J-Pop
TTITLE0=秋桜(コスモス)
TTITLE1=最後の頁
TTITLE2=秋桜(コスモス)(オリジナル・カラオケ)
EXTD=YEAR: 1977
EXTT0=
EXTT1=
EXTT2=
PLAYORDER=
